<svg width="25" height="24" viewBox="0 0 25 24" fill="none" xmlns="http://www.w3.org/2000/svg">
<path d="M3 4H8.5L12 6.5L17.5 4H21.5L23 7.5L22.5 12.5L16.5 18L11 20L5 12.5L2 8.5L3 4Z" fill="#FF0000"/>
<path fill-rule="evenodd" clip-rule="evenodd" d="M16.7365 4.74927C15.5301 5.23683 14.3592 6.18707 13.5214 7.16769C13.499 7.1939 13.4756 7.21924 13.4512 7.24364L12.9193 7.77629C12.3996 8.29673 11.5564 8.29733 11.036 7.77762C10.651 7.39314 10.5504 6.83162 10.7346 6.35471C10.0468 5.68925 9.28467 5.13256 8.48205 4.80291C7.42586 4.36909 6.27045 4.30968 4.96933 4.9965C3.80207 5.61265 3.02811 7.02965 3.17627 8.22555C3.39631 10.0017 4.3377 11.7016 6.02477 13.6484C7.58909 15.4535 9.6818 17.3482 12.2109 19.6341C12.4558 19.5115 12.7512 19.3584 13.0844 19.1757C14.0889 18.6249 15.421 17.8139 16.7456 16.7705C19.4514 14.6389 21.8194 11.7843 21.8306 8.41334C21.7741 7.01971 21.0534 5.69134 19.9199 4.91958L19.9163 4.91715C18.9866 4.27972 17.9158 4.27271 16.7365 4.74927ZM11.977 21.218L12.5016 22.4421C12.0233 22.6471 11.4694 22.5547 11.0835 22.2055C10.8686 22.0112 10.6556 21.8186 10.4444 21.6278C7.93617 19.3614 5.70091 17.3416 4.01195 15.3927C2.16952 13.2667 0.846382 11.0825 0.533006 8.55302C0.235529 6.15185 1.67892 3.72162 3.72596 2.64105C5.79263 1.55012 7.78029 1.63528 9.494 2.33916C10.654 2.81562 11.6693 3.56489 12.5199 4.37635C13.4303 3.53716 14.5347 2.76637 15.7386 2.27984C17.4671 1.58129 19.5382 1.42957 21.4206 2.71913C23.2842 3.98883 24.415 6.12265 24.4933 8.34232C24.4939 8.35797 24.4941 8.37363 24.4941 8.38929C24.4941 13.0423 21.2742 16.5936 18.3938 18.8627C16.922 20.0221 15.4577 20.9119 14.365 21.5111C13.817 21.8115 13.3585 22.0411 13.0338 22.197C12.8714 22.2749 12.7422 22.3345 12.6517 22.3755C12.6064 22.396 12.5708 22.4118 12.5456 22.4229L12.5156 22.436L12.5066 22.4399L12.5016 22.4421C12.5016 22.4421 12.5016 22.4421 11.977 21.218Z" fill="#FF0000"/>
</svg>
