<svg width="124" height="114" viewBox="0 0 124 114" fill="none" xmlns="http://www.w3.org/2000/svg">
<path d="M60.3192 4.06495C59.7658 8.4453 59.5286 8.72564 54.8641 9.49658C53.0457 9.81196 52.6504 10.0923 52.6504 11.0385C52.6504 11.8795 53.0457 12.265 54.0735 12.4051C55.4966 12.6154 55.4966 12.8256 54.5479 16.0496C53.9944 17.9068 52.9667 21.7265 52.2551 24.5299C47.6697 42.4017 48.144 41.1051 46.6419 40.8598C46.0094 40.7547 45.0607 40.5795 44.5073 40.4744C43.7167 40.2991 43.5585 40.6145 43.9538 41.7709C44.2701 42.7872 44.0329 43.5231 43.3214 44.0487C42.3727 44.7145 42.4517 45.0299 43.8748 46.4316C45.7722 48.359 45.6141 47.5179 46.0885 57.6103L46.4047 65.6701L44.112 67.0718C42.0564 68.3684 41.8192 68.7889 41.6611 71.6273C41.5821 73.8701 41.1868 74.8513 40.3962 75.1316C39.7637 75.3419 39.2103 76.2179 39.0521 77.094C38.815 78.5308 38.5778 78.6709 36.5222 78.8462C33.6761 79.0564 32.4902 79.8624 33.2017 81.0538L33.6761 82H61.5842C90.9944 82 91.3897 81.965 91.3897 80.388C91.3897 79.4769 90.1248 78.9513 87.4368 78.7761C85.6974 78.6709 85.4603 78.4607 85.2231 77.094C85.065 76.2179 84.5115 75.3419 83.8791 75.1316C83.0885 74.8513 82.6932 73.8701 82.6141 71.6273C82.456 68.7889 82.2188 68.3684 80.1633 67.0718L77.8705 65.6701L78.1868 57.6103C78.6611 47.5179 78.503 48.359 80.4004 46.4667C81.8235 45.0299 81.8235 44.7846 80.7957 43.8735C79.9261 43.1376 79.847 42.5068 80.3214 41.5607C80.7957 40.6145 80.7167 40.2991 80.0842 40.4043C76.4474 41.0701 76.4474 41.0701 76.0521 39.8786C75.6568 38.7222 74.55 34.5521 71.6248 22.953C68.7786 11.8094 68.8577 12.6504 70.3598 12.4051C71.1504 12.265 71.6248 11.7744 71.6248 11.0385C71.6248 10.0923 71.2295 9.81196 69.4902 9.49658C64.7466 8.72564 64.5094 8.4453 63.956 4.06495C63.5607 0.56068 63.3235 -3.8296e-06 62.1376 -3.8296e-06C60.9517 -3.8296e-06 60.7145 0.56068 60.3192 4.06495ZM64.035 8.97094C66.2487 9.35641 65.3791 9.63675 62.1376 9.63675C59.0543 9.63675 58.0265 9.35641 60.003 9.00598C61.4261 8.72564 62.612 8.72564 64.035 8.97094ZM70.0436 11.0034C70.0436 11.7043 68.2252 11.9145 62.1376 11.9145C56.05 11.9145 54.2316 11.7043 54.2316 11.0034C54.2316 10.6179 55.8919 10.5128 62.1376 10.5128C68.3833 10.5128 70.0436 10.6179 70.0436 11.0034ZM67.2765 14.6128C67.5137 15.7342 68.0671 17.7316 68.4624 19.0983C68.8577 20.4299 70.2808 26.1068 71.7039 31.7137C73.1269 37.2855 74.55 42.0162 74.8662 42.1915C75.2615 42.3667 76.0521 42.3316 76.7637 42.0513C77.7915 41.6658 77.9496 41.7709 77.9496 42.612V43.6282H62.1376H46.3256V42.612C46.3256 41.7709 46.4838 41.6658 47.5115 42.0513C48.2231 42.3316 49.0137 42.3667 49.409 42.1915C49.7252 42.0162 50.5949 39.4231 51.3855 36.4444C52.8085 30.4521 54.4688 24.0744 56.2081 17.7667C56.8406 15.4538 57.394 13.3863 57.394 13.106C57.394 12.7556 58.5799 12.6154 62.0586 12.6154H66.8021L67.2765 14.6128ZM79.5308 45.1C79.5308 45.4504 78.9774 46.0462 78.3449 46.3966C77.7124 46.782 77.159 47.3778 77.159 47.7282C77.159 48.3239 76.1312 48.359 62.1376 48.359C48.144 48.359 47.1162 48.3239 47.1162 47.7282C47.1162 47.3778 46.5628 46.782 45.9303 46.3966C45.2979 46.0462 44.7444 45.4504 44.7444 45.1C44.7444 44.5393 46.0885 44.5043 62.1376 44.5043C78.1868 44.5043 79.5308 44.5393 79.5308 45.1ZM76.3684 51.8632V53.6154H72.0201C68.5415 53.6154 67.8299 53.7205 68.1462 54.141C68.4624 54.4214 68.2252 54.6667 67.7509 54.6667C67.2765 54.6667 66.8812 54.2111 66.8812 53.6504C66.8812 52.6692 66.8021 52.6692 62.1376 52.6692C57.4731 52.6692 57.394 52.7043 57.394 53.6855C57.394 54.2111 56.9987 54.6667 56.5244 54.6667C56.05 54.6667 55.8128 54.4214 56.1291 54.141C56.4453 53.7205 55.7338 53.6154 52.2551 53.6154H47.9068V51.8632V50.1111H62.1376H76.3684V51.8632ZM64.6675 54.3162C64.8256 54.7368 66.0906 55.3675 67.5137 55.753L70.0436 56.4889V55.4026C70.0436 54.8068 70.4389 54.3162 70.8342 54.3162C71.3086 54.3162 71.6248 55.788 71.6248 58.0658V61.8504H62.1376H52.6504V58.0658C52.6504 55.788 52.9667 54.3162 53.441 54.3162C53.9154 54.3162 54.2316 54.8068 54.2316 55.4026V56.4889L56.8406 55.753C58.1846 55.3675 59.4496 54.7368 59.6077 54.3162C60.003 53.3 64.2722 53.3 64.6675 54.3162ZM50.1205 58.4513L50.3577 62.7265H62.1376H73.9175L74.1547 58.4513C74.3128 55.4376 74.7081 54.141 75.4197 54.0359C76.1312 53.9308 76.3684 55.2624 76.3684 59.888V65.8803H62.1376H47.9068V59.888C47.9068 55.2624 48.144 53.9308 48.9346 54.0359C49.5671 54.141 49.9624 55.4376 50.1205 58.4513ZM78.4239 67.6675C82.3769 69.3145 81.6654 69.3846 62.1376 69.3846C42.6098 69.3846 42.2145 69.3496 45.8513 67.6675L47.8278 66.7564L62.2167 66.8265C75.894 66.8966 76.6056 66.9316 78.4239 67.6675ZM80.3214 72.5385V74.9915H62.1376H43.9538V72.5385V70.0855H62.1376H80.3214V72.5385ZM83.3256 77.3393L83.5628 78.8462H62.2167H40.7915V77.5145C40.7915 76.7786 41.0286 76.0427 41.3449 75.9376C41.6611 75.7974 51.1483 75.7274 62.4539 75.7624L83.0885 75.8675L83.3256 77.3393ZM87.753 79.7573C88.4645 79.8624 89.018 80.1778 89.018 80.4581C89.018 80.8786 84.5906 80.9487 62.1376 80.9487C39.4474 80.9487 35.2573 80.8786 35.2573 80.4581C35.2573 80.1778 35.7316 79.8624 36.285 79.7923C37.7081 79.512 86.2509 79.512 87.753 79.7573Z" fill="#E9F1F1"/>
<path d="M61.347 15.1385C61.347 15.1736 61.2679 21.2009 61.1098 28.4898C60.9517 40.0189 61.1098 41.7009 62.1376 41.7009C63.1653 41.7009 63.3235 40.0189 63.1653 28.4898C63.0072 19.8343 62.691 15.2086 62.1376 15.1385C61.7423 15.0685 61.347 15.0685 61.347 15.1385Z" fill="#E9F1F1"/>
<path d="M0.563468 104V103.688C0.963468 103.688 1.36347 103.544 1.76347 103.256C2.17947 102.968 2.47547 102.608 2.65147 102.176L7.88347 89.648L7.21147 88.016C7.01947 87.536 6.72347 87.216 6.32347 87.056C5.92347 86.896 5.48347 86.816 5.00347 86.816V86.504H9.20347L15.5155 101.576C15.8515 102.376 16.2195 102.928 16.6195 103.232C17.0195 103.536 17.5235 103.688 18.1315 103.688V104H11.3875V103.688H12.0355C12.6595 103.688 13.0115 103.488 13.0915 103.088C13.1875 102.672 13.1155 102.176 12.8755 101.6L11.5075 98.264H4.59547L3.01147 102.08C2.89947 102.336 2.85947 102.568 2.89147 102.776C2.92347 102.968 2.99547 103.136 3.10747 103.28C3.23547 103.408 3.40347 103.512 3.61147 103.592C3.81947 103.656 4.05147 103.688 4.30747 103.688V104H0.563468ZM4.73947 97.952H11.3635L8.05147 90.008L4.73947 97.952ZM18.6767 103.688C19.2367 103.688 19.6527 103.616 19.9247 103.472C20.1967 103.312 20.3327 102.952 20.3327 102.392V88.112C20.3327 87.552 20.1967 87.2 19.9247 87.056C19.6527 86.896 19.2367 86.816 18.6767 86.816V86.504H25.4927C26.3887 86.504 27.2687 86.552 28.1327 86.648C28.9967 86.728 29.7647 86.912 30.4367 87.2C31.1247 87.488 31.6767 87.92 32.0927 88.496C32.5247 89.056 32.7407 89.816 32.7407 90.776C32.7407 91.72 32.5407 92.48 32.1407 93.056C31.7567 93.616 31.2527 94.056 30.6287 94.376C30.0207 94.68 29.3407 94.888 28.5887 95C27.8527 95.096 27.1327 95.144 26.4287 95.144H25.4207C25.7247 95.608 26.0767 95.936 26.4767 96.128C26.8927 96.304 27.3087 96.392 27.7247 96.392C28.1567 96.392 28.5647 96.304 28.9487 96.128L33.2207 102.392H33.2687C33.6367 102.904 34.0127 103.248 34.3967 103.424C34.7967 103.6 35.2287 103.688 35.6927 103.688V104H33.2687C32.7727 104 32.3247 103.92 31.9247 103.76C31.5407 103.6 31.1887 103.392 30.8687 103.136C30.5487 102.864 30.2527 102.568 29.9807 102.248C29.7247 101.912 29.4847 101.576 29.2607 101.24L25.0607 95.144H22.9727V102.392C22.9727 102.952 23.1087 103.312 23.3807 103.472C23.6527 103.616 24.0767 103.688 24.6527 103.688V104H18.6767V103.688ZM25.5167 94.832C26.1567 94.832 26.7567 94.776 27.3167 94.664C27.8767 94.536 28.3647 94.32 28.7807 94.016C29.1967 93.712 29.5247 93.304 29.7647 92.792C30.0047 92.264 30.1247 91.6 30.1247 90.8C30.1247 89.504 29.7647 88.52 29.0447 87.848C28.3407 87.16 27.3167 86.816 25.9727 86.816H22.9727V94.832H25.5167ZM35.1118 91.04L35.9038 86.504H51.1198L51.9118 91.04H51.5998C51.4558 90.24 51.2318 89.568 50.9278 89.024C50.6238 88.48 50.2558 88.048 49.8238 87.728C49.3918 87.392 48.9038 87.16 48.3598 87.032C47.8158 86.888 47.2158 86.816 46.5598 86.816H44.8318V102.392C44.8318 102.952 44.9678 103.312 45.2398 103.472C45.5118 103.616 45.9358 103.688 46.5118 103.688V104H40.5358V103.688C41.1118 103.688 41.5278 103.616 41.7838 103.472C42.0558 103.312 42.1918 102.952 42.1918 102.392V86.816H40.4398C39.7998 86.816 39.2078 86.888 38.6638 87.032C38.1198 87.16 37.6318 87.392 37.1998 87.728C36.7678 88.048 36.3998 88.48 36.0958 89.024C35.7918 89.568 35.5678 90.24 35.4238 91.04H35.1118ZM52.5895 103.688C53.1495 103.688 53.5655 103.616 53.8375 103.472C54.1095 103.312 54.2455 102.952 54.2455 102.392V88.112C54.2455 87.552 54.1095 87.2 53.8375 87.056C53.5655 86.896 53.1495 86.816 52.5895 86.816V86.504H59.4055C60.3015 86.504 61.1815 86.552 62.0455 86.648C62.9095 86.728 63.6775 86.912 64.3495 87.2C65.0375 87.488 65.5895 87.92 66.0055 88.496C66.4375 89.056 66.6535 89.816 66.6535 90.776C66.6535 91.72 66.4535 92.48 66.0535 93.056C65.6695 93.616 65.1655 94.056 64.5415 94.376C63.9335 94.68 63.2535 94.888 62.5015 95C61.7655 95.096 61.0455 95.144 60.3415 95.144H59.3335C59.6375 95.608 59.9895 95.936 60.3895 96.128C60.8055 96.304 61.2215 96.392 61.6375 96.392C62.0695 96.392 62.4775 96.304 62.8615 96.128L67.1335 102.392H67.1815C67.5495 102.904 67.9255 103.248 68.3095 103.424C68.7095 103.6 69.1415 103.688 69.6055 103.688V104H67.1815C66.6855 104 66.2375 103.92 65.8375 103.76C65.4535 103.6 65.1015 103.392 64.7815 103.136C64.4615 102.864 64.1655 102.568 63.8935 102.248C63.6375 101.912 63.3975 101.576 63.1735 101.24L58.9735 95.144H56.8855V102.392C56.8855 102.952 57.0215 103.312 57.2935 103.472C57.5655 103.616 57.9895 103.688 58.5655 103.688V104H52.5895V103.688ZM59.4295 94.832C60.0695 94.832 60.6695 94.776 61.2295 94.664C61.7895 94.536 62.2775 94.32 62.6935 94.016C63.1095 93.712 63.4375 93.304 63.6775 92.792C63.9175 92.264 64.0375 91.6 64.0375 90.8C64.0375 89.504 63.6775 88.52 62.9575 87.848C62.2535 87.16 61.2295 86.816 59.8855 86.816H56.8855V94.832H59.4295ZM69.6312 104V103.688C70.0312 103.688 70.4312 103.544 70.8312 103.256C71.2472 102.968 71.5432 102.608 71.7192 102.176L76.9512 89.648L76.2792 88.016C76.0872 87.536 75.7912 87.216 75.3912 87.056C74.9912 86.896 74.5512 86.816 74.0712 86.816V86.504H78.2712L84.5832 101.576C84.9192 102.376 85.2872 102.928 85.6872 103.232C86.0872 103.536 86.5912 103.688 87.1992 103.688V104H80.4552V103.688H81.1032C81.7272 103.688 82.0792 103.488 82.1592 103.088C82.2552 102.672 82.1832 102.176 81.9432 101.6L80.5752 98.264H73.6632L72.0792 102.08C71.9672 102.336 71.9272 102.568 71.9592 102.776C71.9912 102.968 72.0632 103.136 72.1752 103.28C72.3032 103.408 72.4712 103.512 72.6792 103.592C72.8872 103.656 73.1192 103.688 73.3752 103.688V104H69.6312ZM73.8072 97.952H80.4312L77.1192 90.008L73.8072 97.952ZM89.4004 102.392V88.112C89.4004 87.552 89.2644 87.2 88.9924 87.056C88.7364 86.896 88.3204 86.816 87.7444 86.816V86.504H93.7204V86.816C93.1444 86.816 92.7204 86.896 92.4484 87.056C92.1764 87.2 92.0404 87.552 92.0404 88.112V95.84L99.0244 88.064C99.3124 87.776 99.4644 87.552 99.4804 87.392C99.5124 87.216 99.4484 87.088 99.2884 87.008C99.1444 86.928 98.9284 86.88 98.6404 86.864C98.3684 86.832 98.0724 86.816 97.7524 86.816V86.504H102.36V86.816C102.008 86.816 101.696 86.832 101.424 86.864C101.168 86.88 100.928 86.936 100.704 87.032C100.48 87.112 100.264 87.232 100.056 87.392C99.8644 87.552 99.6484 87.768 99.4084 88.04L93.3364 94.832C93.5924 95.392 93.9444 95.784 94.3924 96.008C94.8564 96.216 95.3204 96.32 95.7844 96.32C96.0084 96.32 96.2084 96.304 96.3844 96.272C96.5764 96.224 96.7604 96.168 96.9364 96.104L101.256 102.392C101.624 102.904 102 103.248 102.384 103.424C102.768 103.6 103.192 103.688 103.656 103.688V104H101.04C100.544 104 100.104 103.92 99.7204 103.76C99.3524 103.6 99.0244 103.392 98.7364 103.136C98.4484 102.864 98.1844 102.568 97.9444 102.248C97.7204 101.912 97.4884 101.576 97.2484 101.24L93.0484 95.144L92.0404 96.272V102.392C92.0404 102.952 92.1764 103.312 92.4484 103.472C92.7204 103.616 93.1444 103.688 93.7204 103.688V104H87.7444V103.688C88.3204 103.688 88.7364 103.616 88.9924 103.472C89.2644 103.312 89.4004 102.952 89.4004 102.392ZM104.665 96.8H104.977C104.977 98 105.113 99.032 105.385 99.896C105.657 100.76 106.025 101.48 106.489 102.056C106.969 102.616 107.529 103.032 108.169 103.304C108.809 103.56 109.497 103.688 110.233 103.688C110.681 103.688 111.105 103.64 111.505 103.544C111.921 103.448 112.281 103.288 112.585 103.064C112.889 102.824 113.129 102.52 113.305 102.152C113.481 101.784 113.569 101.336 113.569 100.808C113.569 100.136 113.345 99.528 112.897 98.984C112.465 98.424 111.921 97.888 111.265 97.376C110.609 96.848 109.897 96.336 109.129 95.84C108.361 95.328 107.649 94.8 106.993 94.256C106.337 93.696 105.785 93.104 105.337 92.48C104.905 91.84 104.689 91.136 104.689 90.368C104.689 89.664 104.833 89.056 105.121 88.544C105.425 88.032 105.817 87.608 106.297 87.272C106.777 86.92 107.313 86.664 107.905 86.504C108.497 86.328 109.089 86.24 109.681 86.24C110.289 86.24 110.801 86.304 111.217 86.432C111.649 86.56 112.017 86.704 112.321 86.864C112.641 87.008 112.921 87.144 113.161 87.272C113.401 87.4 113.641 87.464 113.881 87.464C114.201 87.464 114.417 87.4 114.529 87.272C114.641 87.128 114.697 86.872 114.697 86.504H115.009V92.168H114.697C114.697 91.368 114.577 90.64 114.337 89.984C114.097 89.312 113.769 88.744 113.353 88.28C112.937 87.8 112.441 87.432 111.865 87.176C111.305 86.92 110.689 86.792 110.017 86.792C109.057 86.792 108.369 87.024 107.953 87.488C107.537 87.936 107.329 88.512 107.329 89.216C107.329 90 107.537 90.688 107.953 91.28C108.385 91.872 108.921 92.416 109.561 92.912C110.201 93.408 110.897 93.888 111.649 94.352C112.401 94.816 113.097 95.312 113.737 95.84C114.377 96.368 114.905 96.952 115.321 97.592C115.753 98.232 115.969 98.976 115.969 99.824C115.969 100.432 115.881 101.008 115.705 101.552C115.529 102.096 115.233 102.576 114.817 102.992C114.417 103.392 113.873 103.712 113.185 103.952C112.497 104.176 111.649 104.288 110.641 104.288C109.985 104.288 109.433 104.224 108.985 104.096C108.537 103.984 108.145 103.864 107.809 103.736C107.473 103.592 107.169 103.464 106.897 103.352C106.641 103.224 106.369 103.16 106.081 103.16C105.345 103.16 104.977 103.44 104.977 104H104.665V96.8ZM118.766 102.392V88.112C118.766 87.552 118.63 87.2 118.358 87.056C118.102 86.896 117.686 86.816 117.11 86.816V86.504H123.086V86.816C122.51 86.816 122.086 86.896 121.814 87.056C121.542 87.2 121.406 87.552 121.406 88.112V102.392C121.406 102.952 121.542 103.312 121.814 103.472C122.086 103.616 122.502 103.688 123.062 103.688L123.086 104H117.11V103.688C117.686 103.688 118.102 103.616 118.358 103.472C118.63 103.312 118.766 102.952 118.766 102.392Z" fill="#E9F1F1"/>
</svg>
