<svg width="68" height="69" viewBox="0 0 68 69" fill="none" xmlns="http://www.w3.org/2000/svg">
<g clip-path="url(#clip0_754_1174)">
<path d="M36.9702 24.4106H30.2483V17.6887H36.9702M36.9702 51.298H30.2483V31.1324H36.9702M33.6093 0.884094C29.1956 0.884094 24.8252 1.75342 20.7476 3.44245C16.6699 5.13147 12.9648 7.60711 9.84393 10.728C3.54097 17.031 0 25.5796 0 34.4934C0 43.4071 3.54097 51.9557 9.84393 58.2587C12.9648 61.3796 16.6699 63.8553 20.7476 65.5443C24.8252 67.2333 29.1956 68.1026 33.6093 68.1026C42.523 68.1026 51.0717 64.5617 57.3746 58.2587C63.6776 51.9557 67.2185 43.4071 67.2185 34.4934C67.2185 30.0797 66.3492 25.7093 64.6602 21.6317C62.9712 17.554 60.4955 13.8489 57.3746 10.728C54.2537 7.60711 50.5486 5.13147 46.471 3.44245C42.3933 1.75342 38.0229 0.884094 33.6093 0.884094Z" fill="#133637"/>
</g>
<defs>
<clipPath id="clip0_754_1174">
<rect width="67.2185" height="67.2185" fill="white" transform="translate(0 0.884094)"/>
</clipPath>
</defs>
</svg>
