<svg width="19" height="19" viewBox="0 0 19 19" fill="none" xmlns="http://www.w3.org/2000/svg">
<g clip-path="url(#clip0_1146_1799)">
<path d="M9.46488 2.375C11.4057 2.375 13.4767 3.11125 15.3397 4.6873C16.7162 5.852 17.9075 7.3492 18.9145 9.1732C19.019 9.3613 19.0285 9.59025 18.9402 9.78595C18.0016 11.8759 16.7599 13.4739 15.2152 14.5663C13.243 15.96 11.1616 16.625 9.49908 16.625C7.62473 16.625 5.95178 16.1263 4.04608 14.6357C2.54793 13.4653 1.23028 11.8798 0.0902822 9.8857C0.0346112 9.78813 0.00368537 9.67841 0.000207663 9.56613C-0.00327005 9.45385 0.0208063 9.34243 0.0703322 9.2416C0.767632 7.82325 1.82878 6.4391 3.24998 5.08345C5.16613 3.2566 7.44138 2.375 9.46488 2.375ZM9.49908 5.6107C7.45848 5.6107 5.80358 7.3131 5.80358 9.41355C5.80358 11.5131 7.45848 13.2155 9.49908 13.2155C11.5406 13.2155 13.1946 11.5131 13.1946 9.41355C13.1946 7.31405 11.5406 5.6107 9.50003 5.6107M9.50003 6.95305C10.8205 6.95305 11.8912 8.05505 11.8912 9.41355C11.8912 10.772 10.8205 11.874 9.50003 11.874C8.17953 11.874 7.10888 10.772 7.10888 9.41355C7.10888 8.05505 8.17953 6.95305 9.50003 6.95305Z" fill="black"/>
</g>
<defs>
<clipPath id="clip0_1146_1799">
<rect width="19" height="19" fill="white"/>
</clipPath>
</defs>
</svg>
