<svg width="24" height="24" viewBox="0 0 24 24" fill="none" xmlns="http://www.w3.org/2000/svg">
<path fill-rule="evenodd" clip-rule="evenodd" d="M12.455 3.43513C12.7309 3.31704 13.0507 3.37487 13.2679 3.58214L21.5179 11.4571C21.6661 11.5987 21.75 11.7947 21.75 11.9997C21.75 12.2046 21.6661 12.4006 21.5179 12.5422L13.2679 20.4172C13.0507 20.6244 12.7309 20.6823 12.455 20.5642C12.179 20.4461 12 20.1748 12 19.8747V16.1355C9.75683 16.2026 8.22535 16.5777 7.02782 17.1968C5.70137 17.8826 4.70826 18.9059 3.59109 20.3363C3.39404 20.5886 3.05858 20.688 2.75588 20.5838C2.45319 20.4796 2.25 20.1948 2.25 19.8747C2.25 17.0214 2.71894 14.0275 4.29592 11.7295C5.80946 9.52385 8.27062 8.06301 12 7.89159V4.12465C12 3.82448 12.179 3.55321 12.455 3.43513ZM13.5 5.8774V8.62465C13.5 9.03887 13.1642 9.37465 12.75 9.37465C9.00742 9.37465 6.82115 10.7006 5.53272 12.5782C4.55879 13.9974 4.05316 15.796 3.8538 17.7366C4.58514 16.9929 5.3809 16.3597 6.33894 15.8644C7.95372 15.0295 9.95317 14.6247 12.75 14.6247C13.1642 14.6247 13.5 14.9604 13.5 15.3747V18.1219L19.9138 11.9997L13.5 5.8774Z" fill="black" fill-opacity="0.75"/>
</svg>
