<svg width="200" height="200" viewBox="0 0 200 200" fill="none" xmlns="http://www.w3.org/2000/svg">
<rect width="200" height="200" rx="20" fill="#216162"/>
<path d="M96.6385 26.1299C95.5316 34.8906 95.0573 35.4513 85.7282 36.9932C82.0915 37.6239 81.3009 38.1846 81.3009 40.0769C81.3009 41.759 82.0915 42.5299 84.147 42.8102C86.9932 43.2308 86.9932 43.6513 85.0957 50.0991C83.9889 53.8137 81.9333 61.453 80.5103 67.0598C71.3393 102.803 72.288 100.21 69.2838 99.7197C68.0188 99.5094 66.1214 99.159 65.0145 98.9487C63.4333 98.5983 63.1171 99.2291 63.9077 101.542C64.5402 103.574 64.0658 105.046 62.6427 106.097C60.7453 107.429 60.9034 108.06 63.7496 110.863C67.5444 114.718 67.2282 113.036 68.1769 133.221L68.8094 149.34L64.2239 152.144C60.1128 154.737 59.6385 155.578 59.3222 161.255C59.1641 165.74 58.3735 167.703 56.7923 168.263C55.5274 168.684 54.4205 170.436 54.1043 172.188C53.6299 175.062 53.1556 175.342 49.0444 175.692C43.3521 176.113 40.9803 177.725 42.4034 180.108L43.3521 182H99.1684C157.989 182 158.779 181.93 158.779 178.776C158.779 176.954 156.25 175.903 150.874 175.552C147.395 175.342 146.921 174.921 146.446 172.188C146.13 170.436 145.023 168.684 143.758 168.263C142.177 167.703 141.386 165.74 141.228 161.255C140.912 155.578 140.438 154.737 136.327 152.144L131.741 149.34L132.374 133.221C133.322 113.036 133.006 114.718 136.801 110.933C139.647 108.06 139.647 107.569 137.591 105.747C135.852 104.275 135.694 103.014 136.643 101.121C137.591 99.2291 137.433 98.5983 136.168 98.8085C128.895 100.14 128.895 100.14 128.104 97.7573C127.314 95.4444 125.1 87.1043 119.25 63.906C113.557 41.6188 113.715 43.3008 116.72 42.8102C118.301 42.5299 119.25 41.5487 119.25 40.0769C119.25 38.1846 118.459 37.6239 114.98 36.9932C105.493 35.4513 105.019 34.8906 103.912 26.1299C103.121 19.1214 102.647 18 100.275 18C97.9034 18 97.4291 19.1214 96.6385 26.1299ZM104.07 35.9419C108.497 36.7128 106.758 37.2735 100.275 37.2735C94.1086 37.2735 92.053 36.7128 96.006 36.012C98.8521 35.4513 101.224 35.4513 104.07 35.9419ZM116.087 40.0068C116.087 41.4085 112.45 41.8291 100.275 41.8291C88.1 41.8291 84.4633 41.4085 84.4633 40.0068C84.4633 39.2359 87.7838 39.0256 100.275 39.0256C112.767 39.0256 116.087 39.2359 116.087 40.0068ZM110.553 47.2256C111.027 49.4684 112.134 53.4632 112.925 56.1966C113.715 58.8598 116.562 70.2137 119.408 81.4273C122.254 92.5709 125.1 102.032 125.732 102.383C126.523 102.733 128.104 102.663 129.527 102.103C131.583 101.332 131.899 101.542 131.899 103.224V105.256H100.275H68.6513V103.224C68.6513 101.542 68.9675 101.332 71.0231 102.103C72.4462 102.663 74.0274 102.733 74.818 102.383C75.4504 102.032 77.1897 96.8461 78.7709 90.8889C81.6171 78.9043 84.9376 66.1487 88.4162 53.5333C89.6812 48.9077 90.788 44.7726 90.788 44.212C90.788 43.5111 93.1598 43.2308 100.117 43.2308H109.604L110.553 47.2256ZM135.062 108.2C135.062 108.901 133.955 110.092 132.69 110.793C131.425 111.564 130.318 112.756 130.318 113.456C130.318 114.648 128.262 114.718 100.275 114.718C72.288 114.718 70.2325 114.648 70.2325 113.456C70.2325 112.756 69.1256 111.564 67.8607 110.793C66.5957 110.092 65.4889 108.901 65.4889 108.2C65.4889 107.079 68.1769 107.009 100.275 107.009C132.374 107.009 135.062 107.079 135.062 108.2ZM128.737 121.726V125.231H120.04C113.083 125.231 111.66 125.441 112.292 126.282C112.925 126.843 112.45 127.333 111.502 127.333C110.553 127.333 109.762 126.422 109.762 125.301C109.762 123.338 109.604 123.338 100.275 123.338C90.9462 123.338 90.788 123.409 90.788 125.371C90.788 126.422 89.9974 127.333 89.0487 127.333C88.1 127.333 87.6256 126.843 88.2581 126.282C88.8906 125.441 87.4675 125.231 80.5103 125.231H71.8137V121.726V118.222H100.275H128.737V121.726ZM105.335 126.632C105.651 127.474 108.181 128.735 111.027 129.506L116.087 130.978V128.805C116.087 127.614 116.878 126.632 117.668 126.632C118.617 126.632 119.25 129.576 119.25 134.132V141.701H100.275H81.3009V134.132C81.3009 129.576 81.9333 126.632 82.8821 126.632C83.8308 126.632 84.4633 127.614 84.4633 128.805V130.978L89.6812 129.506C92.3692 128.735 94.8992 127.474 95.2154 126.632C96.006 124.6 104.544 124.6 105.335 126.632ZM76.241 134.903L76.7154 143.453H100.275H123.835L124.309 134.903C124.626 128.875 125.416 126.282 126.839 126.072C128.262 125.862 128.737 128.525 128.737 137.776V149.761H100.275H71.8137V137.776C71.8137 128.525 72.288 125.862 73.8692 126.072C75.1342 126.282 75.9248 128.875 76.241 134.903ZM132.848 153.335C140.754 156.629 139.331 156.769 100.275 156.769C61.2197 156.769 60.4291 156.699 67.7026 153.335L71.6556 151.513L100.433 151.653C127.788 151.793 129.211 151.863 132.848 153.335ZM136.643 163.077V167.983H100.275H63.9077V163.077V158.171H100.275H136.643V163.077ZM142.651 172.679L143.126 175.692H100.433H57.5829V173.029C57.5829 171.557 58.0573 170.085 58.6897 169.875C59.3222 169.595 78.2966 169.455 100.908 169.525L142.177 169.735L142.651 172.679ZM151.506 177.515C152.929 177.725 154.036 178.356 154.036 178.916C154.036 179.757 145.181 179.897 100.275 179.897C54.8949 179.897 46.5145 179.757 46.5145 178.916C46.5145 178.356 47.4633 177.725 48.5701 177.585C51.4162 177.024 148.502 177.024 151.506 177.515Z" fill="white"/>
<path d="M98.6939 48.2768C98.6939 48.3469 98.5358 60.4016 98.2196 74.9794C97.9033 98.0375 98.2196 101.402 100.275 101.402C102.331 101.402 102.647 98.0375 102.331 74.9794C102.014 57.6683 101.382 48.417 100.275 48.2768C99.4845 48.1367 98.6939 48.1367 98.6939 48.2768Z" fill="white"/>
</svg>
