<svg width="31" height="32" viewBox="0 0 31 32" fill="none" xmlns="http://www.w3.org/2000/svg">
<path d="M22.1961 18.1643V21.4847C22.1961 22.3288 22.5316 23.1427 23.1311 23.7401C23.7285 24.3396 24.7415 24.6751 25.5878 24.6751H1.77832C2.62464 24.6751 3.63763 24.3396 4.23503 23.7401C4.53171 23.4442 4.76704 23.0927 4.92751 22.7056C5.08797 22.3186 5.17041 21.9036 5.17009 21.4847V13.6903C5.17009 11.4325 6.067 9.26719 7.66349 7.67069C9.25999 6.0742 11.4253 5.1773 13.6831 5.1773M11.5186 30.0691H15.8476M23.9645 12.7531C25.3996 12.7531 26.776 12.1829 27.7908 11.1681C28.8056 10.1533 29.3757 8.77695 29.3757 7.3418C29.3757 5.90664 28.8056 4.53027 27.7908 3.51546C26.776 2.50065 25.3996 1.93054 23.9645 1.93054C22.5293 1.93054 21.1529 2.50065 20.1381 3.51546C19.1233 4.53027 18.5532 5.90664 18.5532 7.3418C18.5532 8.77695 19.1233 10.1533 20.1381 11.1681C21.1529 12.1829 22.5293 12.7531 23.9645 12.7531Z" stroke="#23766C" stroke-width="2.1645" stroke-linecap="round" stroke-linejoin="round"/>
</svg>
