<svg width="31" height="31" viewBox="0 0 31 31" fill="none" xmlns="http://www.w3.org/2000/svg">
<path fill-rule="evenodd" clip-rule="evenodd" d="M29.3761 6.07788C29.3761 7.51304 28.8059 8.88941 27.7911 9.90422C26.7763 10.919 25.4 11.4891 23.9648 11.4891C22.5296 11.4891 21.1533 10.919 20.1385 9.90422C19.1237 8.88941 18.5535 7.51304 18.5535 6.07788C18.5535 4.64273 19.1237 3.26635 20.1385 2.25155C21.1533 1.23674 22.5296 0.666626 23.9648 0.666626C25.4 0.666626 26.7763 1.23674 27.7911 2.25155C28.8059 3.26635 29.3761 4.64273 29.3761 6.07788ZM16.8436 2.17528C15.3547 1.72444 13.781 1.62851 12.2483 1.89516C10.7157 2.16181 9.26686 2.78364 8.01775 3.71085C6.76864 4.63806 5.754 5.84488 5.05509 7.23467C4.35618 8.62447 3.99242 10.1586 3.99294 11.7142V19.0151C3.99294 19.2127 3.95403 19.4083 3.87843 19.5908C3.80283 19.7733 3.69202 19.9391 3.55233 20.0788C3.41264 20.2185 3.24681 20.3293 3.06429 20.4049C2.88178 20.4805 2.68616 20.5194 2.48861 20.5194C2.05806 20.5194 1.64515 20.6905 1.34071 20.9949C1.03627 21.2994 0.865234 21.7123 0.865234 22.1428C0.865234 22.5734 1.03627 22.9863 1.34071 23.2907C1.64515 23.5952 2.05806 23.7662 2.48861 23.7662H25.4302C25.8607 23.7662 26.2736 23.5952 26.5781 23.2907C26.8825 22.9863 27.0535 22.5734 27.0535 22.1428C27.0535 21.7123 26.8825 21.2994 26.5781 20.9949C26.2736 20.6905 25.8607 20.5194 25.4302 20.5194C25.0312 20.5194 24.6486 20.3609 24.3664 20.0788C24.0843 19.7967 23.9258 19.4141 23.9258 19.0151V14.1948C22.5191 14.1887 21.1382 13.8172 19.9183 13.1166C18.6985 12.4161 17.6816 11.4105 16.9675 10.1986C16.2534 8.98659 15.8665 7.60984 15.8448 6.2033C15.823 4.79676 16.1672 3.40872 16.8436 2.17528ZM10.1726 28.264C10.1726 27.8335 10.3436 27.4206 10.6481 27.1161C10.9525 26.8117 11.3654 26.6407 11.796 26.6407H16.125C16.5555 26.6407 16.9684 26.8117 17.2729 27.1161C17.5773 27.4206 17.7484 27.8335 17.7484 28.264C17.7484 28.6946 17.5773 29.1075 17.2729 29.4119C16.9684 29.7164 16.5555 29.8874 16.125 29.8874H11.796C11.3654 29.8874 10.9525 29.7164 10.6481 29.4119C10.3436 29.1075 10.1726 28.6946 10.1726 28.264Z" fill="white"/>
</svg>
