<svg width="24" height="24" viewBox="0 0 24 24" fill="none" xmlns="http://www.w3.org/2000/svg">
<path d="M6.981 3C7.20449 2.54954 7.54934 2.17044 7.97668 1.90542C8.40403 1.6404 8.8969 1.49999 9.39975 1.5H14.625C16.1168 1.5 17.5476 2.09263 18.6025 3.14752C19.6574 4.20242 20.25 5.63316 20.25 7.125V17.1998C20.2502 17.7027 20.1098 18.1958 19.8448 18.6232C19.5797 19.0507 19.2006 19.3957 18.75 19.6193V7.125C18.75 6.5833 18.6433 6.0469 18.436 5.54643C18.2287 5.04596 17.9249 4.59123 17.5418 4.20818C17.1588 3.82514 16.704 3.5213 16.2036 3.314C15.7031 3.1067 15.1667 3 14.625 3H6.981ZM6.5625 4.5C5.81658 4.5 5.10121 4.79632 4.57376 5.32376C4.04632 5.85121 3.75 6.56658 3.75 7.3125V21.75C3.75009 21.8885 3.78855 22.0243 3.86111 22.1423C3.93366 22.2603 4.03749 22.3559 4.16106 22.4185C4.28464 22.4811 4.42314 22.5083 4.5612 22.497C4.69927 22.4857 4.8315 22.4364 4.94325 22.3545L10.152 18.5355L16.092 22.38C16.2053 22.4534 16.3363 22.4949 16.4712 22.5001C16.606 22.5053 16.7398 22.474 16.8584 22.4095C16.977 22.345 17.076 22.2497 17.1449 22.1336C17.2138 22.0175 17.2501 21.885 17.25 21.75V7.3125C17.25 6.56658 16.9537 5.85121 16.4262 5.32376C15.8988 4.79632 15.1834 4.5 14.4375 4.5H6.5625ZM5.25 7.3125C5.25 6.58725 5.838 6 6.5625 6H14.4375C15.162 6 15.75 6.58725 15.75 7.3125V20.3715L10.5323 16.995C10.4046 16.9126 10.2549 16.8709 10.103 16.8755C9.95116 16.88 9.80424 16.9306 9.68175 17.0205L5.25 20.2703V7.3125Z" fill="#FFBC11"/>
</svg>
