<svg width="24" height="24" viewBox="0 0 24 24" fill="none" xmlns="http://www.w3.org/2000/svg">
<path d="M7.334 3.25H14.3745C15.4022 3.25 16.3878 3.65826 17.1145 4.38496C17.8412 5.11166 18.2495 6.09729 18.2495 7.125V19.1655C18.6297 18.9461 18.9454 18.6305 19.165 18.2503C19.3845 17.8702 19.5 17.439 19.5 17V7.125C19.5 4.295 17.205 2 14.375 2H9.5C9.06108 1.99992 8.62988 2.1154 8.24975 2.33483C7.86962 2.55425 7.55346 2.86989 7.334 3.25ZM7 4.5C6.33696 4.5 5.70107 4.76339 5.23223 5.23223C4.76339 5.70107 4.5 6.33696 4.5 7V21.375C4.50003 21.4881 4.53074 21.5991 4.58887 21.6961C4.64699 21.7931 4.73035 21.8725 4.83006 21.9259C4.92977 21.9792 5.04209 22.0046 5.15505 21.9991C5.26801 21.9937 5.37738 21.9577 5.4715 21.895L10.75 18.376L16.0285 21.895C16.1226 21.9577 16.232 21.9937 16.345 21.9991C16.4579 22.0046 16.5702 21.9792 16.6699 21.9259C16.7696 21.8725 16.853 21.7931 16.9111 21.6961C16.9693 21.5991 17 21.4881 17 21.375V7C17 6.33696 16.7366 5.70107 16.2678 5.23223C15.7989 4.76339 15.163 4.5 14.5 4.5H7Z" fill="#FFBC11"/>
</svg>
