<svg width="68" height="68" viewBox="0 0 68 68" fill="none" xmlns="http://www.w3.org/2000/svg">
<circle cx="33.6093" cy="33.6093" r="33.6093" fill="#133637"/>
<path d="M38.5701 42.8828L42.8998 51.5413L47.2957 47.0335L54.0008 47.1006L47.7624 34.7124V34.691M29.4693 42.8828L25.1396 51.5413L20.7437 47.0335L14.0386 47.1006L20.2769 34.7124V34.691" stroke="#D9D9D9" stroke-width="1.63948" stroke-linecap="round" stroke-linejoin="round"/>
<path d="M50.1822 27.1191C50.1822 28.8071 48.6945 30.2276 48.2054 31.7377C47.7173 33.2466 48.0508 35.3119 47.096 36.6216C46.1412 37.9313 44.0983 38.2201 42.8994 39.1973C41.7006 40.1745 40.6797 41.9946 39.1259 42.5051C37.5712 43.0155 35.8171 42.0383 34.1301 42.0383C32.4432 42.0383 30.6454 42.9931 29.1354 42.5051C27.6253 42.0159 26.6705 40.1287 25.3608 39.1973C24.0501 38.2648 22.0083 37.9313 21.0534 36.6216C20.0986 35.3108 20.4545 33.2914 19.9441 31.7377C19.4326 30.1829 17.8564 28.8071 17.8564 27.1191C17.8564 25.4311 19.3441 24.0116 19.8322 22.5016C20.3203 20.9915 19.9878 18.9274 20.9426 17.6177C21.8974 16.308 23.9403 16.0192 25.25 15.042C26.5597 14.0647 27.3589 12.2446 29.0235 11.7342C30.6891 11.2226 32.3324 12.1998 34.0193 12.1998C35.7062 12.1998 37.504 11.245 39.0151 11.7342C40.5241 12.2222 41.4789 14.1095 42.8994 15.042C44.32 15.9744 46.252 16.3069 47.2068 17.6177C48.1617 18.9284 47.8068 20.9478 48.3173 22.5016C48.8277 24.0553 50.1822 25.4321 50.1822 27.1191ZM34.0193 20.4587C32.2527 20.4587 30.5585 21.1605 29.3093 22.4096C28.0602 23.6588 27.3584 25.353 27.3584 27.1196C27.3584 28.8862 28.0602 30.5804 29.3093 31.8296C30.5585 33.0787 32.2527 33.7805 34.0193 33.7805C35.7857 33.7805 37.4798 33.0788 38.7289 31.8297C39.978 30.5807 40.6797 28.8866 40.6797 27.1201C40.6797 25.3537 39.978 23.6596 38.7289 22.4106C37.4798 21.1615 35.7857 20.4587 34.0193 20.4587Z" stroke="#D9D9D9" stroke-width="1.63948" stroke-linecap="round" stroke-linejoin="round"/>
</svg>
