<svg width="20" height="20" viewBox="0 0 20 20" fill="none" xmlns="http://www.w3.org/2000/svg">
<path d="M1 10C1 5.02944 5.02944 1 10 1H10.6667C15.269 1 19 4.73096 19 9.33333V10C19 14.9706 14.9706 19 10 19C5.02944 19 1 14.9706 1 10Z" fill="white"/>
<path d="M1 10C1 5.02944 5.02944 1 10 1H10.6667C15.269 1 19 4.73096 19 9.33333V10C19 14.9706 14.9706 19 10 19C5.02944 19 1 14.9706 1 10Z" stroke="#212121" stroke-width="2"/>
<path fill-rule="evenodd" clip-rule="evenodd" d="M8.46799 3.37624C8.53641 3.03791 8.86615 2.8191 9.20448 2.88752C10.1142 3.0715 10.9503 3.40157 11.6142 3.76241C12.2254 4.09459 12.7616 4.49136 13.0484 4.87718C13.8633 5.69065 14.3366 6.58153 14.3683 7.56139C14.4003 8.54714 13.9809 9.50141 13.2621 10.4243C13.0875 10.6484 12.898 10.8502 12.6965 11.0293C15.337 11.7397 16.6248 13.8435 16.6248 15.5001C16.6248 15.8453 16.345 16.1251 15.9998 16.1251C15.6546 16.1251 15.3748 15.8453 15.3748 15.5001C15.3748 14.2251 14.0717 12.0323 10.7345 12.0323C10.6803 12.0323 10.6265 12.0325 10.5731 12.0328C10.2619 12.0787 9.94649 12.0871 9.63292 12.0576C8.36597 12.1213 7.37804 12.3135 6.61218 12.72C5.68429 13.2127 5.00262 14.0657 4.60612 15.6517C4.5224 15.9866 4.18307 16.1902 3.8482 16.1065C3.51333 16.0227 3.30972 15.6834 3.39344 15.3485C3.85408 13.506 4.71384 12.3126 6.02605 11.616C6.44664 11.3927 6.90468 11.2257 7.39636 11.1023C7.31163 11.0307 7.22864 10.9552 7.14757 10.8755C6.30862 10.0516 5.82066 9.14797 5.78841 8.15248C5.75646 7.16673 6.17579 6.21246 6.89464 5.28953C7.38129 4.66473 7.98457 4.21364 8.63905 3.94256C8.49588 3.79942 8.42485 3.58954 8.46799 3.37624ZM10.4707 10.7835C10.1995 10.7859 9.93374 10.7924 9.67366 10.8039C9.08318 10.7301 8.50625 10.4579 8.02344 9.98371C7.33526 9.30786 7.05651 8.69089 7.03775 8.112C7.01868 7.52338 7.26402 6.84952 7.88081 6.05764C8.99359 4.62894 10.8803 4.49962 12.1333 5.73016C12.8215 6.40601 13.1002 7.02298 13.119 7.60187C13.138 8.19049 12.8927 8.86435 12.2759 9.65623C11.7846 10.287 11.1425 10.6645 10.4707 10.7835Z" fill="#212121"/>
</svg>
