<svg width="24" height="24" viewBox="0 0 24 24" fill="none" xmlns="http://www.w3.org/2000/svg">
<path d="M7.5 13.5C8.32843 13.5 9 12.8284 9 12C9 11.1716 8.32843 10.5 7.5 10.5C6.67157 10.5 6 11.1716 6 12C6 12.8284 6.67157 13.5 7.5 13.5Z" fill="black" fill-opacity="0.75"/>
<path d="M12 13.5C12.8284 13.5 13.5 12.8284 13.5 12C13.5 11.1716 12.8284 10.5 12 10.5C11.1716 10.5 10.5 11.1716 10.5 12C10.5 12.8284 11.1716 13.5 12 13.5Z" fill="black" fill-opacity="0.75"/>
<path d="M16.5 13.5C17.3284 13.5 18 12.8284 18 12C18 11.1716 17.3284 10.5 16.5 10.5C15.6716 10.5 15 11.1716 15 12C15 12.8284 15.6716 13.5 16.5 13.5Z" fill="black" fill-opacity="0.75"/>
<path fill-rule="evenodd" clip-rule="evenodd" d="M11.9921 3C6.99416 3 2.98499 6.95015 3.00004 11.7792L3.00005 11.7804V11.7816C2.99999 13.4614 3.49098 15.1045 4.4124 16.5087C4.46503 16.5806 4.51426 16.655 4.55994 16.7315L4.56356 16.7375L4.56707 16.7437C4.64102 16.873 4.72871 17.0473 4.78914 17.2397C4.84444 17.4157 4.90814 17.7028 4.8249 18.0091L4.82447 18.0107L4.04982 20.8128L6.72864 19.846C6.99497 19.7365 7.28037 19.6805 7.56849 19.6814L7.56993 19.6814L7.56708 20.4314L7.56849 19.6814C7.83823 19.6818 8.10563 19.7316 8.35742 19.8284L8.35851 19.8288C8.51054 19.8875 9.11615 20.1125 9.715 20.2801C10.3037 20.4449 11.3908 20.6447 12.1599 20.6447C17.1329 20.6447 20.9999 16.6518 21 11.7889C20.9998 11.1856 20.936 10.5838 20.8095 9.99391L20.8092 9.99234C19.9657 6.01596 16.3474 3 11.9921 3ZM1.50005 11.7827C1.48294 6.08891 6.19977 1.5 11.9921 1.5C17.047 1.5 21.2837 5.00287 22.2763 9.68C22.4248 10.373 22.4998 11.0796 22.5 11.7883C22.5 17.4637 17.9774 22.1447 12.1599 22.1447C11.2133 22.1447 9.98483 21.9133 9.31072 21.7246C8.64759 21.539 7.99308 21.2956 7.81881 21.2283C7.73819 21.1974 7.65259 21.1815 7.56624 21.1814L7.56523 21.1814L7.56423 21.1814C7.47098 21.181 7.37863 21.1996 7.29277 21.236L7.27407 21.2439L4.09314 22.3919C3.96108 22.446 3.82192 22.4811 3.67987 22.4959L3.63987 22.5001L3.59966 22.5C3.4409 22.4995 3.28382 22.4675 3.13751 22.4059C2.99121 22.3443 2.85858 22.2543 2.74731 22.141C2.63605 22.0278 2.54836 21.8936 2.48933 21.7462C2.4303 21.5989 2.40109 21.4412 2.40341 21.2825L2.40374 21.26L2.40542 21.2375C2.4131 21.1349 2.43136 21.0333 2.45992 20.9345L3.35756 17.6875C3.34119 17.6361 3.30995 17.5678 3.26846 17.4945C3.24588 17.4571 3.22151 17.4208 3.19543 17.3858L3.18261 17.3686L3.17079 17.3507C2.08111 15.6981 1.50021 13.7622 1.50005 11.7827Z" fill="black" fill-opacity="0.75"/>
</svg>
