<svg width="25" height="24" viewBox="0 0 25 24" fill="none" xmlns="http://www.w3.org/2000/svg">
<path fill-rule="evenodd" clip-rule="evenodd" d="M16.7369 4.74927C15.5305 5.23683 14.3596 6.18707 13.5218 7.16769C13.4994 7.1939 13.476 7.21924 13.4516 7.24364L12.9197 7.77629C12.4 8.29673 11.5568 8.29733 11.0363 7.77762C10.6513 7.39314 10.5508 6.83162 10.735 6.35471C10.0472 5.68925 9.28503 5.13256 8.48242 4.80291C7.42623 4.36909 6.27081 4.30968 4.9697 4.9965C3.80244 5.61265 3.02848 7.02965 3.17664 8.22555C3.39668 10.0017 4.33807 11.7016 6.02514 13.6484C7.58946 15.4535 9.68217 17.3482 12.2112 19.6341C12.4562 19.5115 12.7516 19.3584 13.0848 19.1757C14.0893 18.6249 15.4214 17.8139 16.746 16.7705C19.4518 14.6389 21.8198 11.7843 21.831 8.41334C21.7745 7.01971 21.0538 5.69134 19.9203 4.91958L19.9167 4.91715C18.987 4.27972 17.9161 4.27271 16.7369 4.74927ZM11.9773 21.218L12.502 22.4421C12.0237 22.6471 11.4698 22.5547 11.0839 22.2055C10.869 22.0112 10.6559 21.8186 10.4448 21.6278C7.93654 19.3614 5.70128 17.3416 4.01231 15.3927C2.16989 13.2667 0.846748 11.0825 0.533372 8.55302C0.235895 6.15185 1.67928 3.72162 3.72633 2.64105C5.79299 1.55012 7.78066 1.63528 9.49436 2.33916C10.6544 2.81562 11.6696 3.56489 12.5202 4.37635C13.4306 3.53716 14.535 2.76637 15.7389 2.27984C17.4675 1.58129 19.5386 1.42957 21.421 2.71913C23.2846 3.98883 24.4153 6.12265 24.4937 8.34232C24.4942 8.35797 24.4945 8.37363 24.4945 8.38929C24.4945 13.0423 21.2746 16.5936 18.3942 18.8627C16.9224 20.0221 15.4581 20.9119 14.3654 21.5111C13.8174 21.8115 13.3589 22.0411 13.0342 22.197C12.8717 22.2749 12.7425 22.3345 12.652 22.3755C12.6068 22.396 12.5712 22.4118 12.546 22.4229L12.516 22.436L12.5069 22.4399L12.502 22.4421C12.502 22.4421 12.502 22.4421 11.9773 21.218Z" fill="black" fill-opacity="0.75"/>
</svg>
