<svg width="149" height="138" viewBox="0 0 149 138" fill="none" xmlns="http://www.w3.org/2000/svg">
<path d="M72.7831 4.87785C72.119 10.1343 71.8344 10.4707 66.2369 11.3958C64.0549 11.7743 63.5805 12.1107 63.5805 13.2461C63.5805 14.2553 64.0549 14.7178 65.2882 14.8861C66.9959 15.1384 66.9959 15.3907 65.8574 19.2594C65.1933 21.4881 63.96 26.0717 63.1062 29.4358C57.6036 50.882 58.1728 49.3261 56.3703 49.0317C55.6113 48.9055 54.4728 48.6953 53.8087 48.5691C52.86 48.3589 52.6703 48.7373 53.1446 50.125C53.5241 51.3445 53.2395 52.2276 52.3856 52.8584C51.2472 53.6573 51.3421 54.0358 53.0497 55.7178C55.3267 58.0307 55.1369 57.0214 55.7062 69.1322L56.0856 78.804L53.3344 80.4861C50.8677 82.042 50.5831 82.5466 50.3933 85.9527C50.2985 88.644 49.8241 89.8214 48.8754 90.1579C48.1164 90.4102 47.4523 91.4614 47.2626 92.5127C46.978 94.2368 46.6933 94.405 44.2267 94.6153C40.8113 94.8676 39.3882 95.8348 40.2421 97.2645L40.8113 98.3999H74.301C109.593 98.3999 110.068 98.3579 110.068 96.4655C110.068 95.3722 108.55 94.7414 105.324 94.5312C103.237 94.405 102.952 94.1527 102.668 92.5127C102.478 91.4614 101.814 90.4102 101.055 90.1579C100.106 89.8214 99.6318 88.644 99.5369 85.9527C99.3472 82.5466 99.0626 82.042 96.5959 80.4861L93.8446 78.804L94.2241 69.1322C94.7933 57.0214 94.6036 58.0307 96.8805 55.7599C98.5882 54.0358 98.5882 53.7414 97.3549 52.6481C96.3113 51.765 96.2164 51.0081 96.7857 49.8727C97.3549 48.7373 97.26 48.3589 96.501 48.485C92.1369 49.284 92.1369 49.284 91.6626 47.8543C91.1882 46.4666 89.86 41.4625 86.3498 27.5435C82.9344 14.1712 83.0292 15.1804 84.8318 14.8861C85.7805 14.7178 86.3498 14.1291 86.3498 13.2461C86.3498 12.1107 85.8754 11.7743 83.7882 11.3958C78.0959 10.4707 77.8113 10.1343 77.1472 4.87785C76.6728 0.672722 76.3882 -9.91821e-05 74.9651 -9.91821e-05C73.5421 -9.91821e-05 73.2574 0.672722 72.7831 4.87785ZM77.2421 10.765C79.8985 11.2276 78.8549 11.564 74.9651 11.564C71.2651 11.564 70.0318 11.2276 72.4036 10.8071C74.1113 10.4707 75.5344 10.4707 77.2421 10.765ZM84.4523 13.204C84.4523 14.045 82.2703 14.2973 74.9651 14.2973C67.66 14.2973 65.478 14.045 65.478 13.204C65.478 12.7414 67.4703 12.6153 74.9651 12.6153C82.46 12.6153 84.4523 12.7414 84.4523 13.204ZM81.1318 17.5353C81.4164 18.8809 82.0805 21.2779 82.5549 22.9179C83.0292 24.5158 84.7369 31.3281 86.4446 38.0563C88.1523 44.7425 89.86 50.4194 90.2395 50.6296C90.7139 50.8399 91.6626 50.7979 92.5164 50.4614C93.7498 49.9989 93.9395 50.125 93.9395 51.1343V52.3537H74.9651H55.9908V51.1343C55.9908 50.125 56.1805 49.9989 57.4139 50.4614C58.2677 50.7979 59.2164 50.8399 59.6908 50.6296C60.0703 50.4194 61.1138 47.3076 62.0626 43.7332C63.7703 36.5425 65.7626 28.8891 67.8498 21.3199C68.6087 18.5445 69.2728 16.0635 69.2728 15.7271C69.2728 15.3066 70.6959 15.1384 74.8703 15.1384H80.5626L81.1318 17.5353ZM95.8369 54.1199C95.8369 54.5404 95.1728 55.2553 94.4139 55.6758C93.6549 56.1384 92.9908 56.8532 92.9908 57.2738C92.9908 57.9886 91.7574 58.0307 74.9651 58.0307C58.1728 58.0307 56.9395 57.9886 56.9395 57.2738C56.9395 56.8532 56.2754 56.1384 55.5164 55.6758C54.7574 55.2553 54.0933 54.5404 54.0933 54.1199C54.0933 53.4471 55.7062 53.405 74.9651 53.405C94.2241 53.405 95.8369 53.4471 95.8369 54.1199ZM92.0421 62.2358V64.3384H86.8241C82.6497 64.3384 81.7959 64.4645 82.1754 64.9691C82.5549 65.3055 82.2703 65.5999 81.701 65.5999C81.1318 65.5999 80.6574 65.0532 80.6574 64.3804C80.6574 63.203 80.5626 63.203 74.9651 63.203C69.3677 63.203 69.2728 63.245 69.2728 64.4225C69.2728 65.0532 68.7985 65.5999 68.2292 65.5999C67.66 65.5999 67.3754 65.3055 67.7549 64.9691C68.1344 64.4645 67.2805 64.3384 63.1062 64.3384H57.8882V62.2358V60.1332H74.9651H92.0421V62.2358ZM78.001 65.1794C78.1908 65.684 79.7087 66.4409 81.4164 66.9035L84.4523 67.7866V66.483C84.4523 65.7681 84.9267 65.1794 85.401 65.1794C85.9703 65.1794 86.3498 66.9455 86.3498 69.6789V74.2204H74.9651H63.5805V69.6789C63.5805 66.9455 63.96 65.1794 64.5292 65.1794C65.0985 65.1794 65.478 65.7681 65.478 66.483V67.7866L68.6087 66.9035C70.2215 66.4409 71.7395 65.684 71.9292 65.1794C72.4036 63.9599 77.5267 63.9599 78.001 65.1794ZM60.5446 70.1414L60.8292 75.2717H74.9651H89.101L89.3857 70.1414C89.5754 66.525 90.0498 64.9691 90.9036 64.843C91.7574 64.7168 92.0421 66.3148 92.0421 71.8655V79.0563H74.9651H57.8882V71.8655C57.8882 66.3148 58.1728 64.7168 59.1215 64.843C59.8805 64.9691 60.3549 66.525 60.5446 70.1414ZM94.5087 81.2009C99.2523 83.1773 98.3985 83.2614 74.9651 83.2614C51.5318 83.2614 51.0574 83.2194 55.4215 81.2009L57.7933 80.1076L75.06 80.1917C91.4728 80.2758 92.3267 80.3179 94.5087 81.2009ZM96.7857 87.0461V89.9896H74.9651H53.1446V87.0461V84.1025H74.9651H96.7857V87.0461ZM100.391 92.8071L100.675 94.6153H75.06H49.3497V93.0173C49.3497 92.1343 49.6344 91.2512 50.0139 91.125C50.3933 90.9568 61.778 90.8727 75.3446 90.9148L100.106 91.0409L100.391 92.8071ZM105.704 95.7086C106.557 95.8348 107.222 96.2132 107.222 96.5496C107.222 97.0543 101.909 97.1384 74.9651 97.1384C47.7369 97.1384 42.7087 97.0543 42.7087 96.5496C42.7087 96.2132 43.278 95.8348 43.9421 95.7507C45.6497 95.4143 103.901 95.4143 105.704 95.7086Z" fill="#23766C"/>
<path d="M73.6164 18.1664C73.6164 18.2084 73.5215 25.4413 73.3317 34.1879C73.142 48.0228 73.3317 50.0413 74.5651 50.0413C75.7984 50.0413 75.9881 48.0228 75.7984 34.1879C75.6087 23.8013 75.2292 18.2505 74.5651 18.1664C74.0907 18.0823 73.6164 18.0823 73.6164 18.1664Z" fill="#23766C"/>
<path d="M0.776162 125.4V125.026C1.25616 125.026 1.73616 124.853 2.21616 124.507C2.71536 124.162 3.07056 123.73 3.28176 123.211L9.56016 108.178L8.75376 106.219C8.52336 105.643 8.16816 105.259 7.68816 105.067C7.20816 104.875 6.68016 104.779 6.10416 104.779V104.405H11.1442L18.7186 122.491C19.1218 123.451 19.5634 124.114 20.0434 124.478C20.5234 124.843 21.1282 125.026 21.8578 125.026V125.4H13.765V125.026H14.5426C15.2914 125.026 15.7138 124.786 15.8098 124.306C15.925 123.806 15.8386 123.211 15.5506 122.52L13.909 118.517H5.61456L3.71376 123.096C3.57936 123.403 3.53136 123.682 3.56976 123.931C3.60816 124.162 3.69456 124.363 3.82896 124.536C3.98256 124.69 4.18416 124.814 4.43376 124.91C4.68336 124.987 4.96176 125.026 5.26896 125.026V125.4H0.776162ZM5.78736 118.142H13.7362L9.76176 108.61L5.78736 118.142ZM22.5121 125.026C23.1841 125.026 23.6833 124.939 24.0097 124.766C24.3361 124.574 24.4993 124.142 24.4993 123.47V106.334C24.4993 105.662 24.3361 105.24 24.0097 105.067C23.6833 104.875 23.1841 104.779 22.5121 104.779V104.405H30.6913C31.7665 104.405 32.8225 104.462 33.8593 104.578C34.8961 104.674 35.8177 104.894 36.6241 105.24C37.4497 105.586 38.1121 106.104 38.6113 106.795C39.1297 107.467 39.3889 108.379 39.3889 109.531C39.3889 110.664 39.1489 111.576 38.6689 112.267C38.2081 112.939 37.6033 113.467 36.8545 113.851C36.1249 114.216 35.3089 114.466 34.4065 114.6C33.5233 114.715 32.6593 114.773 31.8145 114.773H30.6049C30.9697 115.33 31.3921 115.723 31.8721 115.954C32.3713 116.165 32.8705 116.27 33.3697 116.27C33.8881 116.27 34.3777 116.165 34.8385 115.954L39.9649 123.47H40.0225C40.4641 124.085 40.9153 124.498 41.3761 124.709C41.8561 124.92 42.3745 125.026 42.9313 125.026V125.4H40.0225C39.4273 125.4 38.8897 125.304 38.4097 125.112C37.9489 124.92 37.5265 124.67 37.1425 124.363C36.7585 124.037 36.4033 123.682 36.0769 123.298C35.7697 122.894 35.4817 122.491 35.2129 122.088L30.1729 114.773H27.6673V123.47C27.6673 124.142 27.8305 124.574 28.1569 124.766C28.4833 124.939 28.9921 125.026 29.6833 125.026V125.4H22.5121V125.026ZM30.7201 114.398C31.4881 114.398 32.2081 114.331 32.8801 114.197C33.5521 114.043 34.1377 113.784 34.6369 113.419C35.1361 113.054 35.5297 112.565 35.8177 111.95C36.1057 111.317 36.2497 110.52 36.2497 109.56C36.2497 108.005 35.8177 106.824 34.9537 106.018C34.1089 105.192 32.8801 104.779 31.2673 104.779H27.6673V114.398H30.7201ZM42.2342 109.848L43.1846 104.405H61.4438L62.3942 109.848H62.0198C61.847 108.888 61.5782 108.082 61.2134 107.429C60.8486 106.776 60.407 106.258 59.8886 105.874C59.3702 105.47 58.7846 105.192 58.1318 105.038C57.479 104.866 56.759 104.779 55.9718 104.779H53.8982V123.47C53.8982 124.142 54.0614 124.574 54.3878 124.766C54.7142 124.939 55.223 125.026 55.9142 125.026V125.4H48.743V125.026C49.4342 125.026 49.9334 124.939 50.2406 124.766C50.567 124.574 50.7302 124.142 50.7302 123.47V104.779H48.6278C47.8598 104.779 47.1494 104.866 46.4966 105.038C45.8438 105.192 45.2582 105.47 44.7398 105.874C44.2214 106.258 43.7798 106.776 43.415 107.429C43.0502 108.082 42.7814 108.888 42.6086 109.848H42.2342ZM63.2074 125.026C63.8794 125.026 64.3786 124.939 64.705 124.766C65.0314 124.574 65.1946 124.142 65.1946 123.47V106.334C65.1946 105.662 65.0314 105.24 64.705 105.067C64.3786 104.875 63.8794 104.779 63.2074 104.779V104.405H71.3866C72.4618 104.405 73.5178 104.462 74.5546 104.578C75.5914 104.674 76.513 104.894 77.3194 105.24C78.145 105.586 78.8074 106.104 79.3066 106.795C79.825 107.467 80.0842 108.379 80.0842 109.531C80.0842 110.664 79.8442 111.576 79.3642 112.267C78.9034 112.939 78.2986 113.467 77.5498 113.851C76.8202 114.216 76.0042 114.466 75.1018 114.6C74.2186 114.715 73.3546 114.773 72.5098 114.773H71.3002C71.665 115.33 72.0874 115.723 72.5674 115.954C73.0666 116.165 73.5658 116.27 74.065 116.27C74.5834 116.27 75.073 116.165 75.5338 115.954L80.6602 123.47H80.7178C81.1594 124.085 81.6106 124.498 82.0714 124.709C82.5514 124.92 83.0698 125.026 83.6266 125.026V125.4H80.7178C80.1226 125.4 79.585 125.304 79.105 125.112C78.6442 124.92 78.2218 124.67 77.8378 124.363C77.4538 124.037 77.0986 123.682 76.7722 123.298C76.465 122.894 76.177 122.491 75.9082 122.088L70.8682 114.773H68.3626V123.47C68.3626 124.142 68.5258 124.574 68.8522 124.766C69.1786 124.939 69.6874 125.026 70.3786 125.026V125.4H63.2074V125.026ZM71.4154 114.398C72.1834 114.398 72.9034 114.331 73.5754 114.197C74.2474 114.043 74.833 113.784 75.3322 113.419C75.8314 113.054 76.225 112.565 76.513 111.95C76.801 111.317 76.945 110.52 76.945 109.56C76.945 108.005 76.513 106.824 75.649 106.018C74.8042 105.192 73.5754 104.779 71.9626 104.779H68.3626V114.398H71.4154ZM83.6574 125.4V125.026C84.1374 125.026 84.6174 124.853 85.0974 124.507C85.5966 124.162 85.9518 123.73 86.163 123.211L92.4414 108.178L91.635 106.219C91.4046 105.643 91.0494 105.259 90.5694 105.067C90.0894 104.875 89.5614 104.779 88.9854 104.779V104.405H94.0254L101.6 122.491C102.003 123.451 102.445 124.114 102.925 124.478C103.405 124.843 104.009 125.026 104.739 125.026V125.4H96.6462V125.026H97.4238C98.1726 125.026 98.595 124.786 98.691 124.306C98.8062 123.806 98.7198 123.211 98.4318 122.52L96.7902 118.517H88.4958L86.595 123.096C86.4606 123.403 86.4126 123.682 86.451 123.931C86.4894 124.162 86.5758 124.363 86.7102 124.536C86.8638 124.69 87.0654 124.814 87.315 124.91C87.5646 124.987 87.843 125.026 88.1502 125.026V125.4H83.6574ZM88.6686 118.142H96.6174L92.643 108.61L88.6686 118.142ZM107.38 123.47V106.334C107.38 105.662 107.217 105.24 106.891 105.067C106.584 104.875 106.084 104.779 105.393 104.779V104.405H112.564V104.779C111.873 104.779 111.364 104.875 111.038 105.067C110.712 105.24 110.548 105.662 110.548 106.334V115.608L118.929 106.277C119.275 105.931 119.457 105.662 119.476 105.47C119.515 105.259 119.438 105.106 119.246 105.01C119.073 104.914 118.814 104.856 118.468 104.837C118.142 104.798 117.787 104.779 117.403 104.779V104.405H122.932V104.779C122.51 104.779 122.136 104.798 121.809 104.837C121.502 104.856 121.214 104.923 120.945 105.038C120.676 105.134 120.417 105.278 120.168 105.47C119.937 105.662 119.678 105.922 119.39 106.248L112.104 114.398C112.411 115.07 112.833 115.541 113.371 115.81C113.928 116.059 114.484 116.184 115.041 116.184C115.31 116.184 115.55 116.165 115.761 116.126C115.992 116.069 116.212 116.002 116.424 115.925L121.608 123.47C122.049 124.085 122.5 124.498 122.961 124.709C123.422 124.92 123.931 125.026 124.488 125.026V125.4H121.348C120.753 125.4 120.225 125.304 119.764 125.112C119.323 124.92 118.929 124.67 118.584 124.363C118.238 124.037 117.921 123.682 117.633 123.298C117.364 122.894 117.086 122.491 116.798 122.088L111.758 114.773L110.548 116.126V123.47C110.548 124.142 110.712 124.574 111.038 124.766C111.364 124.939 111.873 125.026 112.564 125.026V125.4H105.393V125.026C106.084 125.026 106.584 124.939 106.891 124.766C107.217 124.574 107.38 124.142 107.38 123.47ZM125.698 116.76H126.073C126.073 118.2 126.236 119.438 126.562 120.475C126.889 121.512 127.33 122.376 127.887 123.067C128.463 123.739 129.135 124.238 129.903 124.565C130.671 124.872 131.497 125.026 132.38 125.026C132.917 125.026 133.426 124.968 133.906 124.853C134.405 124.738 134.837 124.546 135.202 124.277C135.567 123.989 135.855 123.624 136.066 123.182C136.277 122.741 136.383 122.203 136.383 121.57C136.383 120.763 136.114 120.034 135.577 119.381C135.058 118.709 134.405 118.066 133.618 117.451C132.831 116.818 131.977 116.203 131.055 115.608C130.133 114.994 129.279 114.36 128.492 113.707C127.705 113.035 127.042 112.325 126.505 111.576C125.986 110.808 125.727 109.963 125.727 109.042C125.727 108.197 125.9 107.467 126.245 106.853C126.61 106.238 127.081 105.73 127.657 105.326C128.233 104.904 128.876 104.597 129.586 104.405C130.297 104.194 131.007 104.088 131.717 104.088C132.447 104.088 133.061 104.165 133.561 104.318C134.079 104.472 134.521 104.645 134.885 104.837C135.269 105.01 135.605 105.173 135.893 105.326C136.181 105.48 136.469 105.557 136.757 105.557C137.141 105.557 137.401 105.48 137.535 105.326C137.669 105.154 137.737 104.846 137.737 104.405H138.111V111.202H137.737C137.737 110.242 137.593 109.368 137.305 108.581C137.017 107.774 136.623 107.093 136.124 106.536C135.625 105.96 135.029 105.518 134.338 105.211C133.666 104.904 132.927 104.75 132.121 104.75C130.969 104.75 130.143 105.029 129.644 105.586C129.145 106.123 128.895 106.814 128.895 107.659C128.895 108.6 129.145 109.426 129.644 110.136C130.162 110.846 130.805 111.499 131.573 112.094C132.341 112.69 133.177 113.266 134.079 113.822C134.981 114.379 135.817 114.974 136.585 115.608C137.353 116.242 137.986 116.942 138.485 117.71C139.004 118.478 139.263 119.371 139.263 120.389C139.263 121.118 139.157 121.81 138.946 122.462C138.735 123.115 138.38 123.691 137.881 124.19C137.401 124.67 136.748 125.054 135.922 125.342C135.097 125.611 134.079 125.746 132.869 125.746C132.082 125.746 131.42 125.669 130.882 125.515C130.345 125.381 129.874 125.237 129.471 125.083C129.068 124.91 128.703 124.757 128.377 124.622C128.069 124.469 127.743 124.392 127.397 124.392C126.514 124.392 126.073 124.728 126.073 125.4H125.698V116.76ZM142.62 123.47V106.334C142.62 105.662 142.456 105.24 142.13 105.067C141.823 104.875 141.324 104.779 140.632 104.779V104.405H147.804V104.779C147.112 104.779 146.604 104.875 146.277 105.067C145.951 105.24 145.788 105.662 145.788 106.334V123.47C145.788 124.142 145.951 124.574 146.277 124.766C146.604 124.939 147.103 125.026 147.775 125.026L147.804 125.4H140.632V125.026C141.324 125.026 141.823 124.939 142.13 124.766C142.456 124.574 142.62 124.142 142.62 123.47Z" fill="#23766C"/>
</svg>
